<?xml version="1.0" encoding="UTF-8" standalone="no"?>
<!DOCTYPE svg PUBLIC "-//W3C//DTD SVG 1.1//EN"
 "http://www.w3.org/Graphics/SVG/1.1/DTD/svg11.dtd">
<!-- Generated by graphviz version 2.43.0 (0)
 -->
<!-- Title: G Pages: 1 -->
<svg width="562pt" height="116pt"
 viewBox="0.00 0.00 562.00 116.00" xmlns="http://www.w3.org/2000/svg" xmlns:xlink="http://www.w3.org/1999/xlink">
<g id="graph0" class="graph" transform="scale(1 1) rotate(0) translate(4 112)">
<title>G</title>
<polygon fill="white" stroke="transparent" points="-4,4 -4,-112 558,-112 558,4 -4,4"/>
<!-- ignore.d -->
<g id="node1" class="node">
<title>ignore.d</title>
<polygon fill="none" stroke="black" points="97.5,-108 94.5,-112 73.5,-112 70.5,-108 21.5,-108 21.5,-72 97.5,-72 97.5,-108"/>
<text text-anchor="middle" x="59.5" y="-86.3" font-family="Times,serif" font-size="14.00">ignore.d</text>
</g>
<!-- s_build -->
<g id="node6" class="node">
<title>s_build</title>
<polygon fill="none" stroke="#20bf6b" points="113,-36 0,-36 0,0 119,0 119,-30 113,-36"/>
<polyline fill="none" stroke="#20bf6b" points="113,-36 113,-30 "/>
<polyline fill="none" stroke="#20bf6b" points="119,-30 113,-30 "/>
<text text-anchor="middle" x="59.5" y="-14.3" font-family="Times,serif" font-size="14.00" fill="#20bf6b">00&#45;build&#45;&#45;none</text>
</g>
<!-- ignore.d&#45;&gt;s_build -->
<g id="edge4" class="edge">
<title>ignore.d&#45;&gt;s_build</title>
<path fill="none" stroke="black" d="M59.5,-71.7C59.5,-60.85 59.5,-46.92 59.5,-36.1"/>
</g>
<!-- match.d -->
<g id="node2" class="node">
<title>match.d</title>
<polygon fill="none" stroke="black" points="408.5,-108 405.5,-112 384.5,-112 381.5,-108 334.5,-108 334.5,-72 408.5,-72 408.5,-108"/>
<text text-anchor="middle" x="371.5" y="-86.3" font-family="Times,serif" font-size="14.00">match.d</text>
</g>
<!-- s_header -->
<g id="node3" class="node">
<title>s_header</title>
<polygon fill="none" stroke="#20bf6b" points="276,-36 137,-36 137,0 282,0 282,-30 276,-36"/>
<polyline fill="none" stroke="#20bf6b" points="276,-36 276,-30 "/>
<polyline fill="none" stroke="#20bf6b" points="282,-30 276,-30 "/>
<text text-anchor="middle" x="209.5" y="-14.3" font-family="Times,serif" font-size="14.00" fill="#20bf6b">00&#45;source&#45;&#45;header</text>
</g>
<!-- match.d&#45;&gt;s_header -->
<g id="edge1" class="edge">
<title>match.d&#45;&gt;s_header</title>
<path fill="none" stroke="black" d="M334.33,-72.94C308.83,-61.92 275.03,-47.32 249.04,-36.08"/>
</g>
<!-- s_source -->
<g id="node4" class="node">
<title>s_source</title>
<polygon fill="none" stroke="#20bf6b" points="437,-36 300,-36 300,0 443,0 443,-30 437,-36"/>
<polyline fill="none" stroke="#20bf6b" points="437,-36 437,-30 "/>
<polyline fill="none" stroke="#20bf6b" points="443,-30 437,-30 "/>
<text text-anchor="middle" x="371.5" y="-14.3" font-family="Times,serif" font-size="14.00" fill="#20bf6b">01&#45;source&#45;&#45;source</text>
</g>
<!-- match.d&#45;&gt;s_source -->
<g id="edge2" class="edge">
<title>match.d&#45;&gt;s_source</title>
<path fill="none" stroke="black" d="M371.5,-71.7C371.5,-60.85 371.5,-46.92 371.5,-36.1"/>
</g>
<!-- s_test -->
<g id="node5" class="node">
<title>s_test</title>
<polygon fill="none" stroke="#20bf6b" points="548,-36 461,-36 461,0 554,0 554,-30 548,-36"/>
<polyline fill="none" stroke="#20bf6b" points="548,-36 548,-30 "/>
<polyline fill="none" stroke="#20bf6b" points="554,-30 548,-30 "/>
<text text-anchor="middle" x="507.5" y="-14.3" font-family="Times,serif" font-size="14.00" fill="#20bf6b">02&#45;test&#45;&#45;all</text>
</g>
<!-- match.d&#45;&gt;s_test -->
<g id="edge3" class="edge">
<title>match.d&#45;&gt;s_test</title>
<path fill="none" stroke="black" d="M404.77,-71.88C425.84,-61.03 453,-47.05 474.1,-36.19"/>
</g>
</g>
</svg>
