<?xml version="1.0" encoding="UTF-8" standalone="no"?>
<!DOCTYPE svg PUBLIC "-//W3C//DTD SVG 1.1//EN"
 "http://www.w3.org/Graphics/SVG/1.1/DTD/svg11.dtd">
<!-- Generated by graphviz version 2.43.0 (0)
 -->
<!-- Title: G Pages: 1 -->
<svg width="944pt" height="452pt"
 viewBox="0.00 0.00 943.50 452.00" xmlns="http://www.w3.org/2000/svg" xmlns:xlink="http://www.w3.org/1999/xlink">
<g id="graph0" class="graph" transform="scale(1 1) rotate(0) translate(4 448)">
<title>G</title>
<polygon fill="white" stroke="transparent" points="-4,4 -4,-448 939.5,-448 939.5,4 -4,4"/>
<!-- mulle&#45;match match -->
<g id="node1" class="node">
<title>mulle&#45;match match</title>
<text text-anchor="middle" x="701.5" y="-422.3" font-family="monospace" font-size="14.00" fill="blue">mulle&#45;match match</text>
</g>
<!-- .mulle&#45;match -->
<g id="node2" class="node">
<title>.mulle&#45;match</title>
<polygon fill="none" stroke="black" points="756.5,-357 753.5,-361 732.5,-361 729.5,-357 646.5,-357 646.5,-321 756.5,-321 756.5,-357"/>
<text text-anchor="middle" x="701.5" y="-335.3" font-family="Times,serif" font-size="14.00">.mulle&#45;match</text>
</g>
<!-- mulle&#45;match match&#45;&gt;.mulle&#45;match -->
<g id="edge8" class="edge">
<title>mulle&#45;match match&#45;&gt;.mulle&#45;match</title>
<path fill="none" stroke="#d1d8e0" stroke-dasharray="1,5" d="M701.5,-407.8C701.5,-396.16 701.5,-380.55 701.5,-367.24"/>
<polygon fill="#d1d8e0" stroke="#d1d8e0" points="705,-367.18 701.5,-357.18 698,-367.18 705,-367.18"/>
<text text-anchor="middle" x="718" y="-378.8" font-family="Times,serif" font-size="14.00">read</text>
</g>
<!-- etc -->
<g id="node9" class="node">
<title>etc</title>
<polygon fill="none" stroke="black" points="378.5,-284 375.5,-288 354.5,-288 351.5,-284 324.5,-284 324.5,-248 378.5,-248 378.5,-284"/>
<text text-anchor="middle" x="351.5" y="-262.3" font-family="Times,serif" font-size="14.00">etc</text>
</g>
<!-- .mulle&#45;match&#45;&gt;etc -->
<g id="edge1" class="edge">
<title>.mulle&#45;match&#45;&gt;etc</title>
<path fill="none" stroke="black" d="M646.43,-326.83C570.39,-311.4 436.14,-284.17 378.75,-272.53"/>
</g>
<!-- match.d -->
<g id="node3" class="node">
<title>match.d</title>
<polygon fill="none" stroke="black" points="578.5,-211 575.5,-215 554.5,-215 551.5,-211 504.5,-211 504.5,-175 578.5,-175 578.5,-211"/>
<text text-anchor="middle" x="541.5" y="-189.3" font-family="Times,serif" font-size="14.00">match.d</text>
</g>
<!-- s_source -->
<g id="node5" class="node">
<title>s_source</title>
<polygon fill="none" stroke="#20bf6b" points="445,-124 308,-124 308,-88 451,-88 451,-118 445,-124"/>
<polyline fill="none" stroke="#20bf6b" points="445,-124 445,-118 "/>
<polyline fill="none" stroke="#20bf6b" points="451,-118 445,-118 "/>
<text text-anchor="middle" x="379.5" y="-102.3" font-family="Times,serif" font-size="14.00" fill="#20bf6b">01&#45;source&#45;&#45;source</text>
</g>
<!-- match.d&#45;&gt;s_source -->
<g id="edge4" class="edge">
<title>match.d&#45;&gt;s_source</title>
<path fill="none" stroke="black" d="M508.72,-174.8C480.52,-160 440.06,-138.78 411.96,-124.03"/>
</g>
<!-- s_header -->
<g id="node6" class="node">
<title>s_header</title>
<polygon fill="none" stroke="#20bf6b" points="608,-124 469,-124 469,-88 614,-88 614,-118 608,-124"/>
<polyline fill="none" stroke="#20bf6b" points="608,-124 608,-118 "/>
<polyline fill="none" stroke="#20bf6b" points="614,-118 608,-118 "/>
<text text-anchor="middle" x="541.5" y="-102.3" font-family="Times,serif" font-size="14.00" fill="#20bf6b">00&#45;source&#45;&#45;header</text>
</g>
<!-- match.d&#45;&gt;s_header -->
<g id="edge3" class="edge">
<title>match.d&#45;&gt;s_header</title>
<path fill="none" stroke="black" d="M541.5,-174.8C541.5,-160.05 541.5,-138.92 541.5,-124.18"/>
</g>
<!-- s_test -->
<g id="node7" class="node">
<title>s_test</title>
<polygon fill="none" stroke="#20bf6b" points="719,-124 632,-124 632,-88 725,-88 725,-118 719,-124"/>
<polyline fill="none" stroke="#20bf6b" points="719,-124 719,-118 "/>
<polyline fill="none" stroke="#20bf6b" points="725,-118 719,-118 "/>
<text text-anchor="middle" x="678.5" y="-102.3" font-family="Times,serif" font-size="14.00" fill="#20bf6b">02&#45;test&#45;&#45;all</text>
</g>
<!-- match.d&#45;&gt;s_test -->
<g id="edge5" class="edge">
<title>match.d&#45;&gt;s_test</title>
<path fill="none" stroke="black" d="M569.22,-174.8C592.99,-160.05 627.06,-138.92 650.82,-124.18"/>
</g>
<!-- ignore2 -->
<g id="node4" class="node">
<title>ignore2</title>
<polygon fill="none" stroke="black" points="193.5,-211 190.5,-215 169.5,-215 166.5,-211 117.5,-211 117.5,-175 193.5,-175 193.5,-211"/>
<text text-anchor="middle" x="155.5" y="-189.3" font-family="Times,serif" font-size="14.00">ignore.d</text>
</g>
<!-- s_build -->
<g id="node8" class="node">
<title>s_build</title>
<polygon fill="none" stroke="#20bf6b" points="113,-124 0,-124 0,-88 119,-88 119,-118 113,-124"/>
<polyline fill="none" stroke="#20bf6b" points="113,-124 113,-118 "/>
<polyline fill="none" stroke="#20bf6b" points="119,-118 113,-118 "/>
<text text-anchor="middle" x="59.5" y="-102.3" font-family="Times,serif" font-size="14.00" fill="#20bf6b">00&#45;build&#45;&#45;none</text>
</g>
<!-- ignore2&#45;&gt;s_build -->
<g id="edge7" class="edge">
<title>ignore2&#45;&gt;s_build</title>
<path fill="none" stroke="black" d="M136.07,-174.8C119.42,-160.05 95.55,-138.92 78.9,-124.18"/>
</g>
<!-- MULLE_MATCH_ETC_DIR -->
<g id="node10" class="node">
<title>MULLE_MATCH_ETC_DIR</title>
<polygon fill="none" stroke="#2d98da" points="278,-0.5 278,-36.5 481,-36.5 481,-0.5 278,-0.5"/>
<text text-anchor="middle" x="379.5" y="-14.8" font-family="Times,serif" font-size="14.00" fill="#2d98da">MULLE_MATCH_ETC_DIR</text>
</g>
<!-- s_source&#45;&gt;MULLE_MATCH_ETC_DIR -->
<!-- MULLE_MATCH_USE_DIR -->
<g id="node11" class="node">
<title>MULLE_MATCH_USE_DIR</title>
<polygon fill="none" stroke="#2d98da" points="513.5,-0.5 513.5,-36.5 719.5,-36.5 719.5,-0.5 513.5,-0.5"/>
<text text-anchor="middle" x="616.5" y="-14.8" font-family="Times,serif" font-size="14.00" fill="#2d98da">MULLE_MATCH_USE_DIR</text>
</g>
<!-- s_source&#45;&gt;MULLE_MATCH_USE_DIR -->
<!-- MULLE_MATCH_DIR -->
<g id="node12" class="node">
<title>MULLE_MATCH_DIR</title>
<polygon fill="none" stroke="#2d98da" points="765,-0.5 765,-36.5 932,-36.5 932,-0.5 765,-0.5"/>
<text text-anchor="middle" x="848.5" y="-14.8" font-family="Times,serif" font-size="14.00" fill="#2d98da">MULLE_MATCH_DIR</text>
</g>
<!-- s_source&#45;&gt;MULLE_MATCH_DIR -->
<!-- etc&#45;&gt;match.d -->
<g id="edge2" class="edge">
<title>etc&#45;&gt;match.d</title>
<path fill="none" stroke="black" d="M378.72,-254.83C411.66,-242.52 467.28,-221.73 504.19,-207.94"/>
</g>
<!-- etc&#45;&gt;ignore2 -->
<g id="edge6" class="edge">
<title>etc&#45;&gt;ignore2</title>
<path fill="none" stroke="black" d="M324.25,-255.13C290.27,-242.82 232.01,-221.71 193.62,-207.81"/>
</g>
<!-- MULLE_MATCH_ETC_DIR&#45;&gt;etc -->
<g id="edge14" class="edge">
<title>MULLE_MATCH_ETC_DIR&#45;&gt;etc</title>
<path fill="none" stroke="#2d98da" stroke-dasharray="1,5" d="M348.48,-36.71C330.55,-48.55 309.59,-66.07 299.5,-88 275.8,-139.5 309.73,-204.4 332.93,-239.55"/>
<polygon fill="#2d98da" stroke="#2d98da" points="330.04,-241.52 338.55,-247.82 335.82,-237.58 330.04,-241.52"/>
<text text-anchor="middle" x="331" y="-145.8" font-family="Times,serif" font-size="14.00" fill="#2d98da"> reference</text>
</g>
<!-- MULLE_MATCH_USE_DIR&#45;&gt;match.d -->
<g id="edge12" class="edge">
<title>MULLE_MATCH_USE_DIR&#45;&gt;match.d</title>
<path fill="none" stroke="#2d98da" stroke-dasharray="1,5" d="M706.52,-36.52C723.67,-41.58 738,-47.75 743.5,-55 762.19,-79.64 754.39,-100.32 734.5,-124 698.36,-167.03 633.2,-182.85 588.67,-188.65"/>
<polygon fill="#2d98da" stroke="#2d98da" points="588.19,-185.18 578.67,-189.83 589.01,-192.13 588.19,-185.18"/>
<text text-anchor="middle" x="790" y="-102.3" font-family="Times,serif" font-size="14.00" fill="#2d98da"> reference</text>
</g>
<!-- MULLE_MATCH_DIR&#45;&gt;.mulle&#45;match -->
<g id="edge13" class="edge">
<title>MULLE_MATCH_DIR&#45;&gt;.mulle&#45;match</title>
<path fill="none" stroke="#2d98da" stroke-dasharray="1,5" d="M853.01,-36.72C857.1,-53.89 862.5,-81.08 862.5,-105 862.5,-267 862.5,-267 862.5,-267 862.5,-311.02 811.49,-327.98 766.89,-334.4"/>
<polygon fill="#2d98da" stroke="#2d98da" points="766.38,-330.93 756.91,-335.68 767.27,-337.87 766.38,-330.93"/>
<text text-anchor="middle" x="899" y="-189.3" font-family="Times,serif" font-size="14.00" fill="#2d98da"> reference</text>
</g>
<!-- MULLE_MATCH_SKIP_DIR -->
<g id="node13" class="node">
<title>MULLE_MATCH_SKIP_DIR</title>
<polygon fill="none" stroke="#2d98da" points="51,-0.5 51,-36.5 260,-36.5 260,-0.5 51,-0.5"/>
<text text-anchor="middle" x="155.5" y="-14.8" font-family="Times,serif" font-size="14.00" fill="#2d98da">MULLE_MATCH_SKIP_DIR</text>
</g>
<!-- MULLE_MATCH_SKIP_DIR&#45;&gt;ignore2 -->
<g id="edge15" class="edge">
<title>MULLE_MATCH_SKIP_DIR&#45;&gt;ignore2</title>
<path fill="none" stroke="#2d98da" stroke-dasharray="1,5" d="M155.5,-36.6C155.5,-66.52 155.5,-128.58 155.5,-164.56"/>
<polygon fill="#2d98da" stroke="#2d98da" points="152,-164.83 155.5,-174.83 159,-164.83 152,-164.83"/>
<text text-anchor="middle" x="192" y="-102.3" font-family="Times,serif" font-size="14.00" fill="#2d98da"> reference</text>
</g>
</g>
</svg>
