<?xml version="1.0" encoding="UTF-8" standalone="no"?>
<!DOCTYPE svg PUBLIC "-//W3C//DTD SVG 1.1//EN"
 "http://www.w3.org/Graphics/SVG/1.1/DTD/svg11.dtd">
<!-- Generated by graphviz version 2.43.0 (0)
 -->
<!-- Title: G Pages: 1 -->
<svg width="454pt" height="45pt"
 viewBox="0.00 0.00 454.00 45.00" xmlns="http://www.w3.org/2000/svg" xmlns:xlink="http://www.w3.org/1999/xlink">
<g id="graph0" class="graph" transform="scale(1 1) rotate(0) translate(4 41)">
<title>G</title>
<polygon fill="white" stroke="transparent" points="-4,4 -4,-41 450,-41 450,4 -4,4"/>
<!-- mulle&#45;sde -->
<g id="node1" class="node">
<title>mulle&#45;sde</title>
<polygon fill="none" stroke="black" points="0,-0.5 0,-36.5 86,-36.5 86,-0.5 0,-0.5"/>
<text text-anchor="middle" x="43" y="-14.8" font-family="Times,serif" font-size="14.00">mulle&#45;sde</text>
</g>
<!-- mulle&#45;monitor -->
<g id="node2" class="node">
<title>mulle&#45;monitor</title>
<polygon fill="none" stroke="black" points="155,-0.5 155,-36.5 272,-36.5 272,-0.5 155,-0.5"/>
<text text-anchor="middle" x="213.5" y="-14.8" font-family="Times,serif" font-size="14.00">mulle&#45;monitor</text>
</g>
<!-- mulle&#45;sde&#45;&gt;mulle&#45;monitor -->
<g id="edge1" class="edge">
<title>mulle&#45;sde&#45;&gt;mulle&#45;monitor</title>
<path fill="none" stroke="black" stroke-dasharray="1,5" d="M86.09,-18.5C103.77,-18.5 124.78,-18.5 144.56,-18.5"/>
<polygon fill="black" stroke="black" points="144.76,-22 154.76,-18.5 144.76,-15 144.76,-22"/>
<text text-anchor="middle" x="120.5" y="-22.3" font-family="Times,serif" font-size="14.00">runs</text>
</g>
<!-- mulle&#45;match -->
<g id="node3" class="node">
<title>mulle&#45;match</title>
<polygon fill="none" stroke="blue" points="341,-0.5 341,-36.5 446,-36.5 446,-0.5 341,-0.5"/>
<text text-anchor="middle" x="393.5" y="-14.8" font-family="Times,serif" font-size="14.00" fill="blue">mulle&#45;match</text>
</g>
<!-- mulle&#45;monitor&#45;&gt;mulle&#45;match -->
<g id="edge2" class="edge">
<title>mulle&#45;monitor&#45;&gt;mulle&#45;match</title>
<path fill="none" stroke="black" stroke-dasharray="1,5" d="M272.29,-18.5C290.96,-18.5 311.74,-18.5 330.69,-18.5"/>
<polygon fill="black" stroke="black" points="330.71,-22 340.71,-18.5 330.71,-15 330.71,-22"/>
<text text-anchor="middle" x="306.5" y="-22.3" font-family="Times,serif" font-size="14.00">runs</text>
</g>
</g>
</svg>
